<?xml version="1.0" encoding="utf-8"?>
<!-- Generator: Adobe Illustrator 20.1.0, SVG Export Plug-In . SVG Version: 6.00 Build 0)  -->
<svg version="1.0" id="Layer_1" xmlns="http://www.w3.org/2000/svg" xmlns:xlink="http://www.w3.org/1999/xlink" x="0px" y="0px"
	 viewBox="0 0 392.5 124.4" style="enable-background:new 0 0 392.5 124.4;" xml:space="preserve">
<style type="text/css">
	.st0{fill-rule:evenodd;clip-rule:evenodd;fill:#FFFFFF;}
	.st1{fill:#FFFFFF;}
</style>
<g>
	<path class="st0" d="M79.6,75.1c-3.1-2.8-6.6-5.7-9.9-8.4c-3.3-2.7-6.6-5.2-9.5-7.2c-2.9-2-5.4-3.4-7.5-4.2c-2-0.8-3.5-0.8-4.8-0.7
		c-1.3,0.1-2.5,0.4-3.5,0.9c-1,0.5-2,1.1-2.9,2c-0.6,0.5-1.2,1.2-1.9,1.9c3.5,3.1,3,4.2,2.6,4.6c-0.5,0.6-0.9,2-5.3-1.6
		c-0.6,0.7-1.1,1.4-1.6,2.1c-1,1.3-1.8,2.6-2.5,3.9c-0.7,1.3-1.2,2.7-1.4,4c-0.2,1.3-0.2,2.4,0.2,3.6c0.4,1.2,1,2.4,2.4,4
		c0.8,0.9,1.8,2,3.2,3.2c1.4-1.3,8.9-7,11.1-8.5c-1.6,2.5-6,7.9-7.9,11c3.3,2.5,8.9,5.2,13.6,8.7c2-1.1,10.1-8.8,13.9-14.1
		c3.1-4.4,8.7-2.8,7,1.7c4.1-2.2,5.6,1.9,3.9,4.2c1.1-0.3,2.9-0.2,3.6,0.4c3.8,3.9-6.2,13.1-11,16.2c5.3,2.3,8.9,3.6,13.5,5
		c4.6,1.3,8.8,2.5,12,3.2c2.1,0.5,11.1,2.7,11.6-0.4c0.3-1.7-1.3-3.6-3.2-6.1C101.3,99.7,99,97,99,97c0,0,1.7-0.6,1.7-0.6
		c0,0,3.7,5.2,6.8,9.6c2.8-2.6,6.1-8.1,7.8-14.1c2.6-8.9,3.2-20.1,3.1-28.4c0-5.8-1.1-11-3.1-15.4c-8-6.7-21.6-14.2-37.3-17.6
		c-12.8,2.1-23,10.3-25.9,23.9c5.4,1.7,9.4,6.9,14.8,9.1c5,0.3,32.7-1.3,36.3-1.3c3.6,0,5.9,0.2,6.9,1.9c1,1.7,0.2,4.1-3.7,7.5
		c-3.9,3.4-13.1,5.7-22.3,6.1c0.8,1,2.6,2.1,3.5,2.9c-0.1,0-1.3,0.3-1.4,0.3 M99.4,57.5c0.1-0.4,0.3-0.9,0.9-1.2
		c0.6-0.3,1.5-0.6,2.6-0.6c1.1,0,2.4,0.1,3.6,0.1c1.2,0.1,2.1,0,2.9-0.1c0.8-0.1,1.4-0.3,2-0.6c0.6-0.3,1.1-0.6,1.6-1.1
		s1.1-1,1.6-1.6c0.5-0.6,0.9-1.1,0.8-0.9c-0.1,0.2-0.7,1.2-1.2,2c-0.5,0.8-1,1.5-1.6,2.1c-0.6,0.7-1.2,1.3-1.9,1.9
		c-0.7,0.5-1.4,1-2.2,1.3c-0.8,0.4-1.6,0.6-2.4,0.8c-0.8,0.2-1.7,0.3-2.5,0.3c-0.8,0-1.6-0.1-2.3-0.3c-0.7-0.2-1.2-0.6-1.6-1
		C99.4,58.3,99.3,57.9,99.4,57.5z M56.1,53.8c0.1,0,0.7,0.7,1.3,1.4c0.7,0.7,1.5,1.4,2.3,1.8c0.8,0.4,1.6,0.6,2.5,0.6
		c1,0,2.1-0.1,3.1-0.2c1-0.1,1.8-0.4,2.6-0.5c0.8-0.1,1.6-0.2,2.4,0c0.8,0.1,1.5,0.4,2,0.7c0.5,0.3,0.7,0.8,0.7,1.2
		c0,0.4-0.1,0.8-0.5,1.2c-0.3,0.4-0.8,0.8-1.6,1.1c-0.7,0.3-1.7,0.5-2.7,0.5c-1,0-2-0.1-3-0.3c-1-0.2-1.9-0.5-2.8-0.9
		c-0.8-0.4-1.6-1-2.2-1.5c-0.7-0.6-1.3-1.2-1.8-1.8c-0.6-0.6-1.2-1.3-1.6-1.9C56.4,54.5,56,53.8,56.1,53.8z M98.5,44.8
		c0.8,0,1.5,0.8,1.5,1.7c0,1-0.7,1.7-1.5,1.7c-0.8,0-1.5-0.8-1.5-1.7C97,45.6,97.7,44.8,98.5,44.8z M69.1,40.2c4.4,0,8,2.7,7.9,7.7
		c-0.1,4.9-4.2,8-8.2,8c-4.1,0-7.3-3.3-7.3-7.4C61.5,44.4,64.7,40.2,69.1,40.2z M100.6,43.7c2.3,0,4.1,1.8,4.1,4.1
		c0,2.3-1.8,4.1-4.1,4.1c-2.3,0-4.1-1.8-4.1-4.1C96.5,45.5,98.3,43.7,100.6,43.7z M100.6,41.1c3.7,0,6.6,3,6.6,6.6
		c0,3.7-3,6.6-6.6,6.6s-6.6-3-6.6-6.6C94,44.1,97,41.1,100.6,41.1z M100.4,39.5c5.2,0.2,7.6,3.6,7.6,7.7c0,4.1-3.3,8-7.3,8
		c-4.1,0-7.3-2.6-7.9-6.8C92.1,44.1,95.1,39.4,100.4,39.5z M68.8,41.7c3.7,0,6.6,3,6.6,6.7c0,3.7-3,6.7-6.6,6.7
		c-3.7,0-6.6-3-6.6-6.7C62.2,44.7,65.1,41.7,68.8,41.7z M66.7,45.3c0.8,0,1.5,0.8,1.5,1.7c0,1-0.7,1.7-1.5,1.7
		c-0.8,0-1.5-0.8-1.5-1.7C65.3,46.1,65.9,45.3,66.7,45.3z M68.7,44.4c2.3,0,4.1,1.8,4.1,4.1c0,2.3-1.8,4.1-4.1,4.1
		c-2.3,0-4.1-1.8-4.1-4.1C64.6,46.2,66.4,44.4,68.7,44.4z M85.4,64.5c1,0,11.3-0.6,11.3-0.6s0.3,3.9-0.7,5.6
		c-2.2,3.4-7.7,2.4-9.3-0.8C85.9,67.2,85.4,64.5,85.4,64.5z M108.6,112.5c-5.1,4-37.8-7.4-39.3-9.4c-0.9,0-5.1,1.4-7.5,2.3
		c0.8,0.8,0.1,3-0.6,5.4c-0.4,1.5-0.9,2.9-1.6,4.1c-1.3,2.2-4.1,3.9-3.2,7.4c0.9,3.2,17.4,2.3,18.5-0.9c0.5-1.3,0.8-4.2,1-4.6
		c1.8-5,6-4.8,8.5-4.8c1.6,0,6.2-0.3,8,2.7c0.6,1,1.9,2.9,1.9,4.6c0.1,2.8,3.2,4.9,11.2,4.9c3.2,0,7.1-0.3,7.9-2.6
		c0.3-0.9,0.4-2.5-0.8-4C111.5,116.3,109.5,114.9,108.6,112.5z M74.3,69.2c-1.6-2.4-1.4-4.3-1.4-4.3l11.7-0.4
		C84.7,69.8,77.1,73.5,74.3,69.2z M67.7,65.1l2,1.6L54.6,78.8L67.7,65.1z M92.2,100l-5.9,8.4l2.1,0.6L92.2,100z M87.7,80.7
		c-6.3,0.9-4.1,6.8-1.2,6.4c-3.7,1.3-2.9,6.5,1.4,5.5c-3.3,2.6-0.6,8,8.5,5.2c3.3-1,13.6-4.5,16.5-6.3c0.9-0.6-6.2-15.9-6.2-15.9
		C101.9,77.7,97.2,79.3,87.7,80.7z"/>
	<path class="st0" d="M13.7,47.9c2.1-1.2,4.7-2.5,9.1,5.2c2.7-2.7,8.8-2.8,12.8,8.5c3.6,2.5,5.9,4.1,5.9,4.1l0.4-1L36.5,61
		c-1.5-5.1-6.8-15.4-13.4-9.3c-1-2.7-6.1-9.3-9.9-5.3c-3.9-4-6.9-3.1-9.7-1.8c0.4,0.7,0.8,1.5,0.8,1.5C7.7,45.2,10.6,44.9,13.7,47.9
		 M42.6,63.6l-0.1-1.3L38.3,58c0,0-1.2-18-11.2-14c-1.5-6.2-3.7-10-8-8c-2.1-2.2-2.7-3-4.3-4.4l-0.6,1.1c0,0,3.3,3.1,4.4,5.2
		c4-2.5,7,3.3,7.7,7.9c3.4-1.4,9.2-3.9,11.2,12.9C39.6,60.9,41.2,62.3,42.6,63.6z M38.8,67.3c-2.5-0.7-4.7-2.9-4.7-2.9
		c-2.5,1.7-12.6,5.7-15,0.9c-7.2,1.9-10.9-1.6-10.8-4.7C6.5,60.5,0,57.9,0,53.3c0-4.6,2.8-6.1,4.7-7.2c-2.8-2.8-4.5-7.4-0.5-11.5
		c3-3,7.5-2.6,10-1.9c3.1-7,11.6-4.4,14.2,1.8c5.4-1.4,7.5,6,7.2,9.7c5.9,0.7,3.1,12.4,2.9,14.1c1.2,1.2,2.5,2.6,4,4
		C43.3,63.4,41.3,68,38.8,67.3z"/>
	<path class="st0" d="M107.2,75.4c-3.8,2.5-10.2,5.1-15.6,5.9c-1.7,0.3-5.6,0.6-6.4,2C83.9,85.5,85.9,87,88,87
		c-1.6,0.4-2.7,1.8-2.3,3.5c0.3,1.3,2,2.1,4.1,1.5c-3.1,1.4-2.3,5.2,1.7,5.3c5.2,0.1,17.5-4.8,22.7-6.2
		C115.1,90.7,107.2,75.4,107.2,75.4"/>
	<path class="st0" d="M54.2,94.8c3.6-2.4,9.5-7.4,12.3-11c2.8-3.6,3.7-4.4,4.9-4.6c2.9-0.5,3,2.8,2,4.4c0,0,0,0.1,0,0.1
		c1-1,2.7-1.7,4-0.6c1,0.9,1.1,3.1-0.2,4.4c1.2-0.6,3.6-1.1,4.2,1.1c1.1,3.8-5.9,9.8-8.2,11.8c-3.8,3.2-6.7,4.4-7.5,4.8
		c-0.4,0.2-1.4,0.6-4.1,0.2C60,103.9,55,97.6,54.2,94.8"/>
	<path class="st0" d="M102.1,6.1c0.4-0.2,0.9-0.5,1.6-0.7c0.7-0.1,1.6-0.2,2.6-0.1c0.9,0.1,1.9,0.4,2.7,0.7c0.8,0.4,1.4,0.8,1.9,1.3
		c0.5,0.6,0.9,1.2,1.2,1.9c0.3,0.6,0.4,1.3,0.4,1.8c0,0.5-0.1,1-0.2,1.3c-0.1,0.3-0.3,0.5-0.5,0.5c-0.2,0-0.4-0.1-0.6-0.3
		c-0.2-0.2-0.4-0.6-0.6-1c-0.2-0.4-0.5-1-0.9-1.5c-0.3-0.5-0.6-0.9-1-1.2c-0.4-0.3-0.8-0.6-1.4-0.9c-0.6-0.3-1.5-0.5-2.3-0.7
		c-0.8-0.2-1.7-0.3-2.3-0.4c-0.6-0.1-0.9-0.2-1-0.3C101.6,6.6,101.7,6.4,102.1,6.1 M120.8,15c0.1-0.2,0.3-0.3,0.7-0.3
		c0.4,0,1,0,1.8,0.2c0.7,0.2,1.6,0.5,2.3,0.9c0.7,0.4,1.2,0.8,1.6,1.3c0.5,0.5,0.9,1.1,1.1,1.8c0.3,0.7,0.4,1.4,0.4,2.1
		c0,0.7-0.1,1.3-0.3,1.7c-0.2,0.5-0.4,0.8-0.6,1.1c-0.2,0.2-0.5,0.3-0.8,0.1c-0.2-0.2-0.4-0.6-0.6-1c-0.1-0.5-0.2-1.1-0.3-1.7
		c-0.1-0.6-0.3-1.3-0.7-1.9c-0.3-0.6-0.8-1.1-1.4-1.6c-0.6-0.5-1.2-0.9-1.7-1.2c-0.5-0.4-1-0.6-1.3-0.9
		C120.9,15.5,120.8,15.2,120.8,15z M78.4,29.3c13.5,2.5,26.5,8.3,37,17.1c-0.6-2.3-0.3-8.3,1.9-12.2c3.2,0.9,12.7,0.9,14.8-6.9
		c0.9-3.3,0.5-7.8-4.2-12c-4.7-4.2-10.4-2.4-10.4-2.4s-0.2-6.1-6.6-8.8c-6.4-2.6-9.8-0.9-13.5,1.6C97,4.4,95,0.6,89.3,0.1
		C83.5-0.5,80.2,4,78.9,6.9C77,11.4,78.6,18,83.6,20.3C83.6,20.3,83.9,23.6,78.4,29.3z M110.3,27.7c-2.7,1.3-7.6,0.8-11.3-1
		c-3-1.5-4.5-3.6-5.6-5.2c-1.8,0.4-5.8,0.5-8.8-1.3c-4.5-2.6-7.1-6.9-5.2-11.9c-0.5,3.4,1.6,6.8,4.5,8.9c2.6,1.9,8,3.1,12.5,1.1
		c-0.7,3.6,3.5,7.2,6.7,7.7c5,0.8,7-1.1,8.2-3.2c2.1,8.5,17.4,12.2,20.6,1.5C132.3,34.9,116.7,37.9,110.3,27.7z"/>
</g>
<g>
	<path class="st1" d="M375.7,73.8c0,4.1,0.5,7.3,1.6,9.7c1.1,2.4,2.9,4,5.3,4.9c2.5,0.9,5.7,1.1,9.8,0.6v-8.4
		c-1.6,0.2-2.9,0.2-3.8-0.1c-1-0.3-1.7-0.7-2.1-1.3c-0.5-0.6-0.8-1.4-0.9-2.3c-0.2-0.9-0.2-2-0.2-3.1V56.2h7v-8.8h-7v-8.1l-9.6,1.1
		V73.8z M356,39.2c0,1.2,0.3,2.2,0.8,2.9c0.5,0.8,1.2,1.4,2,1.8c0.8,0.4,1.7,0.6,2.6,0.6c0.9,0,1.8-0.2,2.6-0.6c0.8-0.4,1.5-1,2-1.8
		c0.5-0.8,0.8-1.8,0.8-2.9c0-1.2-0.3-2.2-0.8-3c-0.5-0.8-1.2-1.4-2-1.8c-0.8-0.4-1.7-0.6-2.6-0.6c-0.9,0-1.8,0.2-2.6,0.6
		c-0.8,0.4-1.5,1-2,1.8C356.3,37.1,356.1,38,356,39.2z M366.2,48.5h-9.6V89h9.6V48.5z M349.9,34.3c-3.2-0.4-6-0.3-8.4,0.3
		c-2.4,0.6-4.5,1.6-6.1,2.9c-1.7,1.4-2.9,3-3.8,5c-0.8,2-1.3,4.1-1.3,6.5v40h9.6V60.1h8.9v-8.8h-8.9v-2.2c0-1.6,0.4-2.9,1.2-3.9
		c0.8-1.1,1.9-1.8,3.4-2.3c1.5-0.4,3.3-0.5,5.5-0.2V34.3z M306,88.9V61.8c0-3-0.5-5.6-1.4-7.7c-0.9-2.2-2.4-3.9-4.3-5
		c-1.9-1.2-4.4-1.8-7.4-1.8c-1.1,0-2.2,0.1-3.2,0.4c-1.1,0.2-2.1,0.6-3,1.2c-0.9,0.5-1.7,1.2-2.5,2.1V35h-9.6v54h9.6V62.9
		c0-2.3,0.5-4,1.5-5.2c1-1.1,2.6-1.7,4.6-1.7c1.3,0,2.4,0.2,3.3,0.7c0.9,0.5,1.6,1.2,2,2.2c0.5,1,0.7,2.4,0.7,4v26H306z M268.1,60.5
		c0-1.9-0.3-3.6-0.9-5.2c-0.6-1.6-1.5-3-2.8-4.2c-1.2-1.2-2.8-2.1-4.7-2.8c-1.9-0.7-4.1-1-6.6-1c-2.3,0-4.3,0.3-6.2,0.8
		c-1.9,0.5-3.6,1.3-5,2.4c-1.4,1.1-2.5,2.5-3.3,4.2c-0.8,1.7-1.2,3.7-1.2,6c0,2,0.4,3.7,1,5.1c0.7,1.4,1.5,2.5,2.7,3.4
		c1.1,0.9,2.4,1.5,3.8,2c1.4,0.5,2.9,0.8,4.4,1c1.2,0.2,2.5,0.3,3.6,0.4c1.1,0.1,2.2,0.3,3,0.6c0.9,0.3,1.6,0.6,2.1,1.1
		c0.5,0.5,0.8,1.2,0.8,2c0,0.7-0.2,1.4-0.7,2c-0.4,0.6-1.1,1.2-1.9,1.6c-0.9,0.4-1.9,0.6-3.2,0.6c-1.5,0-2.8-0.2-3.7-0.5
		c-0.9-0.4-1.6-0.9-2-1.6c-0.4-0.7-0.7-1.5-0.7-2.5h-9.7c0,2.7,0.6,5,1.9,6.9c1.2,1.9,3,3.4,5.4,4.5c2.3,1.1,5.2,1.6,8.4,1.6
		c2.2,0,4.3-0.2,6.2-0.8c1.9-0.5,3.6-1.3,5.1-2.3c1.4-1.1,2.6-2.4,3.4-4c0.8-1.6,1.2-3.6,1.2-5.8c0-1.8-0.3-3.4-0.9-4.8
		c-0.6-1.4-1.5-2.5-2.5-3.4c-1.1-0.9-2.2-1.6-3.6-2.1c-1.3-0.5-2.7-0.8-4.1-1c-1.4-0.1-2.7-0.3-3.9-0.3c-1.2-0.1-2.3-0.2-3.3-0.5
		c-0.9-0.2-1.7-0.6-2.2-1.2c-0.5-0.6-0.8-1.4-0.8-2.5c0-1.4,0.5-2.5,1.6-3.2c1-0.7,2.5-1.1,4.4-1.1c1,0,2,0.2,2.8,0.5
		c0.8,0.3,1.5,0.8,2,1.5c0.5,0.7,0.7,1.5,0.7,2.6H268.1z M214.8,55.8c1.4,0,2.5,0.2,3.3,0.5c0.9,0.4,1.5,0.9,2,1.6
		c0.5,0.7,0.8,1.5,0.9,2.5c0.2,1,0.2,2.1,0.2,3.4h-13.1c0-1.2,0.1-2.4,0.2-3.4c0.2-1,0.5-1.8,1-2.5c0.5-0.7,1.1-1.2,2-1.6
		C212.2,56,213.3,55.8,214.8,55.8z M221.1,76.2c0,1.4-0.5,2.5-1.5,3.3c-1,0.8-2.7,1.2-4.9,1.2c-1,0-1.9-0.1-2.7-0.3
		c-0.8-0.2-1.5-0.6-2.1-1.2c-0.6-0.6-1-1.4-1.3-2.4c-0.3-1-0.5-2.4-0.5-4v-1.1h22.4v-8.2c0-3.7-0.6-6.8-1.8-9.1
		c-1.2-2.4-2.9-4.1-5.3-5.3c-2.4-1.1-5.4-1.7-9-1.7c-3.6,0-6.6,0.6-9,1.9c-2.4,1.2-4.1,3.1-5.3,5.5c-1.2,2.4-1.8,5.3-1.8,8.8v9.4
		c0,3.7,0.6,6.8,1.8,9.1c1.2,2.4,2.9,4.1,5.3,5.3c2.4,1.1,5.4,1.7,9,1.7c5.4,0,9.4-1,12.1-3.2c2.6-2.1,4-5.3,3.9-9.7H221.1z
		 M193.8,47.4c-1.7-0.3-3.4-0.2-4.9,0.2c-1.5,0.4-2.9,1-4,1.7c-1.2,0.8-2,1.7-2.6,2.7l-0.4-4.3h-8.8V89h9.6V65.3
		c0-1.5,0.3-2.8,0.9-3.9c0.6-1.1,1.4-1.9,2.4-2.6c1-0.6,2.2-1.1,3.5-1.3c1.3-0.2,2.8-0.2,4.4,0V47.4z M167.2,34.3
		c-3.2-0.4-6-0.3-8.4,0.3c-2.4,0.6-4.5,1.6-6.1,2.9c-1.7,1.4-2.9,3-3.8,5c-0.8,2-1.3,4.1-1.3,6.5v40h9.6V60.1h8.9v-8.8h-8.9v-2.2
		c0-1.6,0.4-2.9,1.2-3.9c0.8-1.1,1.9-1.8,3.4-2.3c1.5-0.4,3.3-0.5,5.5-0.2V34.3z"/>
	<path class="st1" d="M388.7,112.1c-0.2,0.6-0.3,1.2-0.4,1.7c-0.1,0.6-0.2,1.2-0.4,1.7c-0.1,0.6-0.2,1.1-0.3,1.6
		c-0.1-0.5-0.2-1-0.3-1.5c-0.1-0.5-0.2-1.1-0.4-1.6c-0.1-0.6-0.3-1.2-0.5-1.9l-1.1-3.8H384l-1.1,3.8c-0.2,0.7-0.3,1.3-0.5,1.9
		c-0.1,0.6-0.3,1.1-0.4,1.6c-0.1,0.5-0.2,1-0.3,1.5c-0.1-0.5-0.2-1-0.3-1.6c-0.1-0.6-0.2-1.1-0.4-1.7c-0.1-0.6-0.3-1.2-0.4-1.7
		l-1.2-3.8h-2l3.3,11.4h1.9l0.9-3.3l1-4.5l1,4.4l0.9,3.3h1.9l3.3-11.4h-2L388.7,112.1z M372.8,107.2l1.4-2.5v-0.1h-1.8l-1,2.5v0.1
		H372.8z M372.1,119.9c1,0,1.8-0.1,2.5-0.4c0.6-0.3,1.1-0.8,1.4-1.4c0.3-0.6,0.4-1.5,0.4-2.5v-3.2c0-1-0.2-1.8-0.5-2.4
		c-0.3-0.6-0.8-1-1.5-1.3c-0.6-0.3-1.4-0.4-2.3-0.4c-0.9,0-1.6,0.1-2.3,0.4c-0.6,0.3-1.1,0.7-1.5,1.3c-0.3,0.6-0.5,1.4-0.5,2.4v3.2
		c0,1,0.1,1.9,0.4,2.5c0.3,0.6,0.7,1.1,1.4,1.4C370.2,119.7,371.1,119.9,372.1,119.9z M372.1,118.3c-0.6,0-1-0.1-1.4-0.2
		c-0.4-0.2-0.6-0.5-0.8-0.9c-0.2-0.4-0.3-0.9-0.3-1.6v-3.2c0-0.5,0.1-0.9,0.2-1.3c0.1-0.3,0.3-0.6,0.5-0.8c0.2-0.2,0.5-0.3,0.8-0.4
		c0.3-0.1,0.6-0.1,1-0.1c0.4,0,0.7,0,1,0.1c0.3,0.1,0.6,0.2,0.8,0.4c0.2,0.2,0.4,0.4,0.5,0.8c0.1,0.3,0.2,0.7,0.2,1.3v3.2
		c0,0.7-0.1,1.2-0.2,1.6c-0.2,0.4-0.4,0.7-0.8,0.9C373.1,118.2,372.7,118.3,372.1,118.3z M366.6,119.7l-4.6-6l4.2-5.3H364l-3.5,4.6
		h-0.7v-8.2h-1.9v15h1.9v-5.1h0.8l3.9,5.1H366.6z M353.4,114.6c0,0.5-0.1,0.9-0.2,1.3c-0.1,0.4-0.2,0.8-0.5,1.1
		c-0.2,0.3-0.5,0.5-0.8,0.7c-0.3,0.2-0.8,0.3-1.3,0.3c-0.3,0-0.6,0-0.8-0.1c-0.3-0.1-0.5-0.2-0.6-0.4c-0.2-0.2-0.3-0.4-0.3-0.7
		c-0.1-0.6,0.1-1,0.4-1.3c0.3-0.3,0.8-0.5,1.4-0.7c0.3-0.1,0.7-0.1,1-0.1c0.3,0,0.7,0,0.9,0C353,114.6,353.3,114.6,353.4,114.6z
		 M355.3,112c0-0.9-0.2-1.7-0.5-2.2c-0.3-0.6-0.8-1-1.4-1.2c-0.6-0.3-1.3-0.4-2.1-0.4c-0.8,0-1.5,0.1-2,0.4c-0.6,0.2-1,0.6-1.2,1.2
		c-0.3,0.5-0.4,1.2-0.4,2.1h1.8c0-0.5,0.1-0.9,0.2-1.2c0.1-0.3,0.4-0.5,0.6-0.6c0.3-0.1,0.6-0.2,0.9-0.2c0.6,0,1,0.1,1.3,0.3
		c0.3,0.2,0.5,0.4,0.7,0.7c0.1,0.3,0.2,0.7,0.2,1.1v1.1c-0.5,0-0.9,0-1.4,0c-0.5,0-0.9,0.1-1.4,0.1c-0.8,0.1-1.5,0.3-2,0.7
		c-0.5,0.3-1,0.8-1.2,1.3c-0.3,0.5-0.4,1.1-0.3,1.8c0,0.3,0.1,0.7,0.2,1c0.1,0.3,0.3,0.6,0.5,0.9c0.3,0.3,0.6,0.5,1,0.6
		c0.4,0.2,1,0.2,1.6,0.2c0.5,0,0.9-0.1,1.3-0.2c0.4-0.2,0.7-0.4,1-0.6c0.3-0.2,0.5-0.5,0.6-0.8l0.2,1.5h1.7V112z M345.8,108.3
		c-0.5-0.1-0.9-0.1-1.4,0c-0.4,0.1-0.8,0.2-1.1,0.4c-0.3,0.2-0.6,0.4-0.8,0.7l-0.1-1.1h-1.7v11.4h1.9v-7.3c0-0.4,0.1-0.8,0.2-1.1
		c0.2-0.3,0.4-0.6,0.7-0.7c0.3-0.2,0.6-0.3,1-0.4c0.4-0.1,0.8,0,1.3,0V108.3z M339.2,119.7l-4.6-6l4.2-5.3h-2.3l-3.5,4.6h-0.7v-8.2
		h-1.9v15h1.9v-5.1h0.8l3.9,5.1H339.2z M318.2,112l-1.1-3.7h-2l3.6,11.4l-0.5,1.6c-0.1,0.4-0.3,0.6-0.4,0.8
		c-0.2,0.2-0.3,0.3-0.5,0.3c-0.2,0-0.4,0-0.6,0c-0.2,0-0.4-0.1-0.6-0.2l-0.3,1.6c0.7,0.3,1.4,0.4,1.9,0.4c0.5,0,1-0.3,1.4-0.6
		c0.4-0.4,0.7-1,0.9-1.7l0.7-2.2l3.6-11.4h-1.9l-1.1,3.5c-0.2,0.7-0.4,1.3-0.6,1.9c-0.2,0.5-0.3,1-0.4,1.5c-0.1,0.4-0.2,0.8-0.3,1.1
		c-0.1,0.3-0.1,0.6-0.2,0.9L318.2,112z M304.8,119.7h1.9v-7.4c0-0.5,0.1-1,0.3-1.3c0.2-0.4,0.5-0.6,0.9-0.8c0.4-0.2,0.8-0.3,1.3-0.3
		c0.5,0,0.8,0.1,1.2,0.3c0.3,0.2,0.6,0.5,0.8,0.8c0.2,0.4,0.3,0.8,0.3,1.3v7.4h1.9v-7.4c0-0.8-0.1-1.4-0.2-1.9
		c-0.2-0.5-0.4-0.9-0.7-1.3c-0.3-0.3-0.7-0.6-1.2-0.7c-0.5-0.1-1-0.2-1.7-0.2c-0.4,0-0.7,0-1.1,0.1c-0.4,0.1-0.7,0.2-1,0.4
		c-0.3,0.2-0.6,0.5-0.8,0.8l-0.1-1.2h-1.7V119.7z M294.1,119.7h8.5v-1.7H297l5.6-9.3v-0.3h-7.9v1.7h5.1l-5.6,9.4V119.7z
		 M290.6,115.8c0,0.5-0.1,0.9-0.2,1.2c-0.1,0.3-0.3,0.5-0.5,0.7c-0.2,0.2-0.5,0.3-0.8,0.3c-0.3,0.1-0.6,0.1-1,0.1
		c-0.4,0-0.7,0-1-0.1c-0.3-0.1-0.6-0.2-0.8-0.4c-0.2-0.2-0.4-0.5-0.5-0.8c-0.1-0.3-0.2-0.8-0.2-1.3v-3.2c0-0.5,0.1-0.9,0.2-1.3
		c0.1-0.3,0.3-0.6,0.5-0.7c0.2-0.2,0.5-0.3,0.8-0.4c0.3-0.1,0.6-0.1,1-0.1c0.4,0,0.7,0,1,0.1c0.3,0.1,0.5,0.2,0.7,0.3
		c0.2,0.1,0.4,0.4,0.5,0.6c0.1,0.3,0.2,0.6,0.2,1.1l1.8,0c0-0.7-0.1-1.3-0.3-1.8c-0.2-0.5-0.5-0.9-0.8-1.2c-0.4-0.3-0.8-0.5-1.3-0.6
		c-0.5-0.1-1.1-0.2-1.7-0.2c-0.9,0-1.6,0.1-2.3,0.4c-0.6,0.3-1.1,0.7-1.5,1.3c-0.3,0.6-0.5,1.4-0.5,2.4v3.2c0,1,0.1,1.9,0.5,2.5
		c0.3,0.6,0.8,1.1,1.4,1.4c0.6,0.3,1.4,0.4,2.4,0.4c0.7,0,1.4-0.1,1.9-0.2c0.5-0.1,1-0.4,1.3-0.7c0.3-0.3,0.6-0.7,0.7-1.2
		c0.2-0.5,0.2-1.2,0.3-1.9H290.6z M276.8,112l-1.1-3.7h-2l3.6,11.4l-0.5,1.6c-0.1,0.4-0.3,0.6-0.4,0.8c-0.2,0.2-0.3,0.3-0.5,0.3
		c-0.2,0-0.4,0-0.6,0c-0.2,0-0.4-0.1-0.6-0.2l-0.3,1.6c0.7,0.3,1.4,0.4,1.9,0.4c0.5,0,1-0.3,1.4-0.6c0.4-0.4,0.7-1,0.9-1.7l0.7-2.2
		l3.6-11.4h-1.9l-1.1,3.5c-0.2,0.7-0.4,1.3-0.6,1.9c-0.2,0.5-0.3,1-0.4,1.5c-0.1,0.4-0.2,0.8-0.3,1.1c-0.1,0.3-0.1,0.6-0.2,0.9
		L276.8,112z M268.7,116.5c0,0.5,0.1,1,0.2,1.4c0.1,0.4,0.3,0.8,0.6,1.1c0.3,0.3,0.7,0.5,1.2,0.6c0.5,0.1,1.1,0.1,1.9,0.1V118
		c-0.5,0.1-0.9,0-1.2,0c-0.3-0.1-0.5-0.3-0.7-0.5c-0.1-0.2-0.2-0.6-0.2-0.9v-6.4h2v-1.8h-2v-2.3l-1.8,0.2V116.5z M259.6,112.3
		c0-0.5,0.1-0.9,0.2-1.2c0.1-0.3,0.3-0.6,0.5-0.7c0.2-0.2,0.5-0.3,0.8-0.4c0.3-0.1,0.6-0.1,1-0.1c0.4,0,0.7,0,1,0.1
		c0.3,0.1,0.6,0.2,0.8,0.4c0.2,0.2,0.4,0.4,0.5,0.7c0.1,0.3,0.2,0.7,0.2,1.2v0.8h-4.8V112.3z M264.4,116.4c0,0.6-0.2,1-0.6,1.3
		c-0.4,0.3-1,0.4-1.8,0.4c-0.4,0-0.8,0-1.1-0.1c-0.3-0.1-0.5-0.2-0.7-0.4c-0.2-0.2-0.3-0.4-0.4-0.8c-0.1-0.3-0.1-0.7-0.1-1.2v-0.9
		h6.6v-2.4c0-1-0.2-1.8-0.5-2.4c-0.3-0.6-0.8-1-1.5-1.3c-0.6-0.3-1.4-0.4-2.2-0.4c-0.9,0-1.6,0.1-2.3,0.4c-0.6,0.3-1.1,0.7-1.5,1.3
		c-0.3,0.6-0.5,1.4-0.5,2.4v3.3c0,1,0.1,1.8,0.4,2.4c0.3,0.6,0.7,1.1,1.4,1.3c0.6,0.3,1.4,0.4,2.5,0.4c1,0,1.8-0.1,2.4-0.4
		c0.6-0.3,1.1-0.7,1.4-1.2c0.3-0.5,0.4-1.1,0.4-1.9H264.4z M252,116.5c0,0.5,0.1,1,0.2,1.4c0.1,0.4,0.3,0.8,0.6,1.1
		c0.3,0.3,0.7,0.5,1.2,0.6c0.5,0.1,1.1,0.1,1.9,0.1V118c-0.5,0.1-0.9,0-1.2,0c-0.3-0.1-0.5-0.3-0.7-0.5c-0.1-0.2-0.2-0.6-0.2-0.9
		v-6.4h2v-1.8h-2v-2.3l-1.8,0.2V116.5z M242.9,112.3c0-0.5,0.1-0.9,0.2-1.2c0.1-0.3,0.3-0.6,0.5-0.7c0.2-0.2,0.5-0.3,0.8-0.4
		c0.3-0.1,0.6-0.1,1-0.1c0.4,0,0.7,0,1,0.1c0.3,0.1,0.6,0.2,0.8,0.4c0.2,0.2,0.4,0.4,0.5,0.7c0.1,0.3,0.2,0.7,0.2,1.2v0.8h-4.8
		V112.3z M247.7,116.4c0,0.6-0.2,1-0.6,1.3c-0.4,0.3-1,0.4-1.8,0.4c-0.4,0-0.8,0-1.1-0.1c-0.3-0.1-0.5-0.2-0.7-0.4
		c-0.2-0.2-0.3-0.4-0.4-0.8c-0.1-0.3-0.1-0.7-0.1-1.2v-0.9h6.6v-2.4c0-1-0.2-1.8-0.5-2.4c-0.3-0.6-0.8-1-1.5-1.3
		c-0.6-0.3-1.4-0.4-2.2-0.4c-0.9,0-1.6,0.1-2.3,0.4c-0.6,0.3-1.1,0.7-1.5,1.3c-0.3,0.6-0.5,1.4-0.5,2.4v3.3c0,1,0.1,1.8,0.4,2.4
		c0.3,0.6,0.7,1.1,1.4,1.3c0.6,0.3,1.4,0.4,2.5,0.4c1,0,1.8-0.1,2.4-0.4c0.6-0.3,1.1-0.7,1.4-1.2c0.3-0.5,0.4-1.1,0.4-1.9H247.7z
		 M236.3,105.7c0,0.2,0.1,0.5,0.2,0.6c0.1,0.2,0.2,0.3,0.4,0.4c0.2,0.1,0.3,0.1,0.5,0.1c0.2,0,0.4,0,0.5-0.1
		c0.2-0.1,0.3-0.2,0.4-0.4c0.1-0.2,0.2-0.4,0.2-0.6c0-0.2-0.1-0.5-0.2-0.6c-0.1-0.2-0.2-0.3-0.4-0.4c-0.2-0.1-0.3-0.1-0.5-0.1
		c-0.2,0-0.4,0-0.5,0.1c-0.2,0.1-0.3,0.2-0.4,0.4C236.4,105.3,236.4,105.5,236.3,105.7z M238.4,119.7v-11.3h-1.9v11.3H238.4z
		 M231.5,112.6v2.5c0,0.6-0.1,1-0.2,1.4c-0.1,0.4-0.3,0.7-0.5,0.9c-0.2,0.2-0.5,0.4-0.8,0.5c-0.3,0.1-0.7,0.2-1.1,0.2
		c-0.4,0-0.7,0-1-0.1c-0.3-0.1-0.5-0.2-0.7-0.4c-0.2-0.2-0.3-0.4-0.4-0.7c-0.1-0.3-0.1-0.7-0.1-1.2v-3c0-0.7,0.1-1.2,0.3-1.6
		c0.2-0.4,0.4-0.7,0.8-0.8c0.4-0.2,0.8-0.2,1.4-0.2c0.6,0,1,0.1,1.3,0.2c0.3,0.2,0.6,0.4,0.8,0.8
		C231.4,111.4,231.5,111.9,231.5,112.6z M233.4,104.5h-1.9v4.7c-0.2-0.3-0.4-0.5-0.7-0.6c-0.3-0.1-0.6-0.2-0.9-0.3
		c-0.3-0.1-0.7-0.1-1.1-0.1c-0.8,0-1.5,0.2-2.1,0.5c-0.6,0.3-1,0.8-1.3,1.4c-0.3,0.7-0.5,1.5-0.5,2.5v3c0,0.8,0.1,1.4,0.3,1.9
		c0.2,0.5,0.5,0.9,0.8,1.3c0.3,0.3,0.8,0.6,1.2,0.7c0.5,0.1,1,0.2,1.6,0.2c0.4,0,0.9-0.1,1.2-0.2c0.4-0.1,0.7-0.3,1-0.5
		c0.3-0.2,0.5-0.5,0.6-0.8l0.2,1.5h1.6V104.5z M212.9,118c-0.4,0-0.8-0.1-1.1-0.2c-0.3-0.2-0.6-0.4-0.7-0.8
		c-0.2-0.4-0.3-0.8-0.3-1.4v-3.2c0-0.5,0-0.8,0.1-1.2c0.1-0.3,0.2-0.5,0.4-0.7c0.2-0.2,0.4-0.3,0.7-0.4c0.3-0.1,0.6-0.1,1-0.1
		c0.4,0,0.7,0.1,1,0.2c0.3,0.1,0.6,0.3,0.8,0.5c0.2,0.2,0.4,0.5,0.5,0.9c0.1,0.4,0.2,0.8,0.2,1.3v2.2c0,0.6-0.1,1.1-0.2,1.5
		c-0.1,0.4-0.3,0.7-0.5,0.9c-0.2,0.2-0.5,0.4-0.8,0.5C213.7,118,213.3,118,212.9,118z M212.9,119.7c0.5,0,0.9-0.1,1.3-0.2
		c0.4-0.1,0.7-0.3,0.9-0.6c0.2-0.2,0.4-0.5,0.5-0.7v1.9c0,0.5-0.1,0.9-0.2,1.3c-0.1,0.3-0.3,0.6-0.5,0.8c-0.2,0.2-0.5,0.3-0.8,0.4
		c-0.3,0.1-0.6,0.1-1,0.1c-0.4,0-0.8,0-1.1-0.1c-0.3-0.1-0.6-0.3-0.8-0.5c-0.2-0.2-0.3-0.6-0.3-1h-1.8c0,0.8,0.2,1.5,0.5,2
		c0.3,0.5,0.8,0.9,1.4,1.1c0.6,0.2,1.3,0.3,2.1,0.3c0.9,0,1.6-0.1,2.2-0.4c0.6-0.3,1.1-0.8,1.5-1.4c0.3-0.6,0.5-1.5,0.5-2.5v-11.7
		h-1.5l-0.2,1.4c-0.1-0.3-0.3-0.6-0.6-0.8c-0.3-0.2-0.6-0.4-1-0.5c-0.4-0.1-0.8-0.2-1.2-0.2c-0.6,0-1.1,0.1-1.6,0.2
		c-0.5,0.1-0.9,0.4-1.2,0.7c-0.3,0.3-0.6,0.7-0.8,1.3c-0.2,0.5-0.3,1.2-0.3,1.9v3.4c0,1.3,0.3,2.3,1,2.9
		C210.6,119.4,211.6,119.7,212.9,119.7z M197.9,119.7h1.9v-7.4c0-0.5,0.1-1,0.3-1.3c0.2-0.4,0.5-0.6,0.9-0.8
		c0.4-0.2,0.8-0.3,1.3-0.3c0.5,0,0.8,0.1,1.2,0.3c0.3,0.2,0.6,0.5,0.8,0.8c0.2,0.4,0.3,0.8,0.3,1.3v7.4h1.9v-7.4
		c0-0.8-0.1-1.4-0.2-1.9c-0.2-0.5-0.4-0.9-0.7-1.3c-0.3-0.3-0.7-0.6-1.2-0.7c-0.5-0.1-1-0.2-1.7-0.2c-0.4,0-0.7,0-1.1,0.1
		c-0.4,0.1-0.7,0.2-1,0.4c-0.3,0.2-0.6,0.5-0.8,0.8l-0.1-1.2h-1.7V119.7z M192.6,105.7c0,0.2,0.1,0.5,0.2,0.6
		c0.1,0.2,0.2,0.3,0.4,0.4c0.2,0.1,0.3,0.1,0.5,0.1c0.2,0,0.4,0,0.5-0.1c0.2-0.1,0.3-0.2,0.4-0.4c0.1-0.2,0.2-0.4,0.2-0.6
		c0-0.2-0.1-0.5-0.2-0.6c-0.1-0.2-0.2-0.3-0.4-0.4c-0.2-0.1-0.3-0.1-0.5-0.1c-0.2,0-0.4,0-0.5,0.1c-0.2,0.1-0.3,0.2-0.4,0.4
		C192.7,105.3,192.6,105.5,192.6,105.7z M194.6,119.7v-11.3h-1.9v11.3H194.6z M190.6,108.3c-0.5-0.1-0.9-0.1-1.4,0
		c-0.4,0.1-0.8,0.2-1.1,0.4c-0.3,0.2-0.6,0.4-0.8,0.7l-0.1-1.1h-1.7v11.4h1.9v-7.3c0-0.4,0.1-0.8,0.2-1.1c0.2-0.3,0.4-0.6,0.7-0.7
		c0.3-0.2,0.6-0.3,1-0.4c0.4-0.1,0.8,0,1.3,0V108.3z M176.4,112.3c0-0.5,0.1-0.9,0.2-1.2c0.1-0.3,0.3-0.6,0.5-0.7
		c0.2-0.2,0.5-0.3,0.8-0.4c0.3-0.1,0.6-0.1,1-0.1c0.4,0,0.7,0,1,0.1c0.3,0.1,0.6,0.2,0.8,0.4c0.2,0.2,0.4,0.4,0.5,0.7
		c0.1,0.3,0.2,0.7,0.2,1.2v0.8h-4.8V112.3z M181.2,116.4c0,0.6-0.2,1-0.6,1.3c-0.4,0.3-1,0.4-1.8,0.4c-0.4,0-0.8,0-1.1-0.1
		c-0.3-0.1-0.5-0.2-0.7-0.4c-0.2-0.2-0.3-0.4-0.4-0.8c-0.1-0.3-0.1-0.7-0.1-1.2v-0.9h6.6v-2.4c0-1-0.2-1.8-0.5-2.4
		c-0.3-0.6-0.8-1-1.5-1.3c-0.6-0.3-1.4-0.4-2.2-0.4c-0.9,0-1.6,0.1-2.3,0.4c-0.6,0.3-1.1,0.7-1.5,1.3c-0.3,0.6-0.5,1.4-0.5,2.4v3.3
		c0,1,0.1,1.8,0.4,2.4c0.3,0.6,0.7,1.1,1.4,1.3c0.6,0.3,1.4,0.4,2.5,0.4c1,0,1.8-0.1,2.4-0.4c0.6-0.3,1.1-0.7,1.4-1.2
		c0.3-0.5,0.4-1.1,0.4-1.9H181.2z M168.8,116.5c0,0.5,0.1,1,0.2,1.4c0.1,0.4,0.3,0.8,0.6,1.1c0.3,0.3,0.7,0.5,1.2,0.6
		c0.5,0.1,1.1,0.1,1.9,0.1V118c-0.5,0.1-0.9,0-1.2,0c-0.3-0.1-0.5-0.3-0.7-0.5c-0.1-0.2-0.2-0.6-0.2-0.9v-6.4h2v-1.8h-2v-2.3
		l-1.8,0.2V116.5z M164.2,114.6c0,0.5-0.1,0.9-0.2,1.3c-0.1,0.4-0.2,0.8-0.5,1.1c-0.2,0.3-0.5,0.5-0.8,0.7c-0.3,0.2-0.8,0.3-1.3,0.3
		c-0.3,0-0.6,0-0.8-0.1c-0.3-0.1-0.5-0.2-0.6-0.4c-0.2-0.2-0.3-0.4-0.3-0.7c-0.1-0.6,0.1-1,0.4-1.3c0.3-0.3,0.8-0.5,1.4-0.7
		c0.3-0.1,0.7-0.1,1-0.1c0.3,0,0.7,0,0.9,0C163.8,114.6,164.1,114.6,164.2,114.6z M166.1,112c0-0.9-0.2-1.7-0.5-2.2
		c-0.3-0.6-0.8-1-1.4-1.2c-0.6-0.3-1.3-0.4-2.1-0.4c-0.8,0-1.5,0.1-2,0.4c-0.6,0.2-1,0.6-1.2,1.2c-0.3,0.5-0.4,1.2-0.4,2.1h1.8
		c0-0.5,0.1-0.9,0.2-1.2c0.1-0.3,0.4-0.5,0.6-0.6c0.3-0.1,0.6-0.2,0.9-0.2c0.6,0,1,0.1,1.3,0.3c0.3,0.2,0.5,0.4,0.7,0.7
		c0.1,0.3,0.2,0.7,0.2,1.1v1.1c-0.5,0-0.9,0-1.4,0c-0.5,0-0.9,0.1-1.4,0.1c-0.8,0.1-1.5,0.3-2,0.7c-0.5,0.3-1,0.8-1.2,1.3
		c-0.3,0.5-0.4,1.1-0.3,1.8c0,0.3,0.1,0.7,0.2,1c0.1,0.3,0.3,0.6,0.5,0.9c0.3,0.3,0.6,0.5,1,0.6c0.4,0.2,1,0.2,1.6,0.2
		c0.5,0,0.9-0.1,1.3-0.2c0.4-0.2,0.7-0.4,1-0.6c0.3-0.2,0.5-0.5,0.6-0.8l0.2,1.5h1.7V112z M154.2,115.8c0,0.5-0.1,0.9-0.2,1.2
		c-0.1,0.3-0.3,0.5-0.5,0.7c-0.2,0.2-0.5,0.3-0.8,0.3c-0.3,0.1-0.6,0.1-1,0.1c-0.4,0-0.7,0-1-0.1c-0.3-0.1-0.6-0.2-0.8-0.4
		c-0.2-0.2-0.4-0.5-0.5-0.8c-0.1-0.3-0.2-0.8-0.2-1.3v-3.2c0-0.5,0.1-0.9,0.2-1.3c0.1-0.3,0.3-0.6,0.5-0.7c0.2-0.2,0.5-0.3,0.8-0.4
		c0.3-0.1,0.6-0.1,1-0.1c0.4,0,0.7,0,1,0.1c0.3,0.1,0.5,0.2,0.7,0.3c0.2,0.1,0.4,0.4,0.5,0.6c0.1,0.3,0.2,0.6,0.2,1.1l1.8,0
		c0-0.7-0.1-1.3-0.3-1.8c-0.2-0.5-0.5-0.9-0.8-1.2c-0.4-0.3-0.8-0.5-1.3-0.6c-0.5-0.1-1.1-0.2-1.7-0.2c-0.9,0-1.6,0.1-2.3,0.4
		c-0.6,0.3-1.1,0.7-1.5,1.3c-0.3,0.6-0.5,1.4-0.5,2.4v3.2c0,1,0.1,1.9,0.5,2.5c0.3,0.6,0.8,1.1,1.4,1.4c0.6,0.3,1.4,0.4,2.4,0.4
		c0.7,0,1.4-0.1,1.9-0.2c0.5-0.1,1-0.4,1.3-0.7c0.3-0.3,0.6-0.7,0.7-1.2c0.2-0.5,0.2-1.2,0.3-1.9H154.2z"/>
</g>
</svg>
